<svg xmlns="http://www.w3.org/2000/svg" xmlns:xlink="http://www.w3.org/1999/xlink" width="500" zoomAndPan="magnify" viewBox="0 0 375 374.999991" height="500" preserveAspectRatio="xMidYMid meet" version="1.0"><defs><g/></defs><g fill="#22d3ee" fill-opacity="0.1882"><g transform="translate(18.166691, 294.056071)"><g><path d="M 89.453125 1.984375 C 74.921875 1.984375 61.898438 -0.375 50.390625 -5.09375 C 38.878906 -9.8125 29.675781 -16.789062 22.78125 -26.03125 C 15.894531 -35.28125 12.265625 -46.421875 11.890625 -59.453125 L 63.40625 -59.453125 C 64.164062 -52.085938 66.710938 -46.46875 71.046875 -42.59375 C 75.390625 -38.726562 81.050781 -36.796875 88.03125 -36.796875 C 95.207031 -36.796875 100.867188 -38.445312 105.015625 -41.75 C 109.171875 -45.050781 111.25 -49.628906 111.25 -55.484375 C 111.25 -60.390625 109.597656 -64.445312 106.296875 -67.65625 C 102.992188 -70.863281 98.9375 -73.503906 94.125 -75.578125 C 89.3125 -77.660156 82.46875 -80.019531 73.59375 -82.65625 C 60.757812 -86.625 50.285156 -90.585938 42.171875 -94.546875 C 34.054688 -98.515625 27.070312 -104.363281 21.21875 -112.09375 C 15.375 -119.832031 12.453125 -129.929688 12.453125 -142.390625 C 12.453125 -160.878906 19.148438 -175.359375 32.546875 -185.828125 C 45.953125 -196.304688 63.410156 -201.546875 84.921875 -201.546875 C 106.816406 -201.546875 124.460938 -196.304688 137.859375 -185.828125 C 151.253906 -175.359375 158.425781 -160.785156 159.375 -142.109375 L 107 -142.109375 C 106.625 -148.523438 104.265625 -153.570312 99.921875 -157.25 C 95.585938 -160.925781 90.019531 -162.765625 83.21875 -162.765625 C 77.375 -162.765625 72.65625 -161.207031 69.0625 -158.09375 C 65.476562 -154.976562 63.6875 -150.5 63.6875 -144.65625 C 63.6875 -138.238281 66.707031 -133.234375 72.75 -129.640625 C 78.789062 -126.054688 88.226562 -122.191406 101.0625 -118.046875 C 113.894531 -113.703125 124.320312 -109.546875 132.34375 -105.578125 C 140.363281 -101.617188 147.296875 -95.863281 153.140625 -88.3125 C 158.992188 -80.769531 161.921875 -71.050781 161.921875 -59.15625 C 161.921875 -47.832031 159.039062 -37.546875 153.28125 -28.296875 C 147.53125 -19.054688 139.179688 -11.695312 128.234375 -6.21875 C 117.285156 -0.75 104.359375 1.984375 89.453125 1.984375 Z M 89.453125 1.984375 "/></g></g></g><g fill="#22d3ee" fill-opacity="0.1882"><g transform="translate(192.255609, 294.056071)"><g><path d="M 137.859375 -101.90625 C 149.367188 -99.457031 158.613281 -93.75 165.59375 -84.78125 C 172.582031 -75.8125 176.078125 -65.570312 176.078125 -54.0625 C 176.078125 -37.457031 170.269531 -24.296875 158.65625 -14.578125 C 147.050781 -4.859375 130.875 0 110.125 0 L 17.546875 0 L 17.546875 -198.71875 L 107 -198.71875 C 127.195312 -198.71875 143.003906 -194.09375 154.421875 -184.84375 C 165.835938 -175.601562 171.546875 -163.054688 171.546875 -147.203125 C 171.546875 -135.503906 168.476562 -125.785156 162.34375 -118.046875 C 156.207031 -110.304688 148.046875 -104.925781 137.859375 -101.90625 Z M 65.953125 -118.328125 L 97.65625 -118.328125 C 105.582031 -118.328125 111.671875 -120.070312 115.921875 -123.5625 C 120.171875 -127.050781 122.296875 -132.191406 122.296875 -138.984375 C 122.296875 -145.785156 120.171875 -150.976562 115.921875 -154.5625 C 111.671875 -158.144531 105.582031 -159.9375 97.65625 -159.9375 L 65.953125 -159.9375 Z M 101.625 -39.0625 C 109.738281 -39.0625 116.015625 -40.898438 120.453125 -44.578125 C 124.890625 -48.265625 127.109375 -53.597656 127.109375 -60.578125 C 127.109375 -67.554688 124.796875 -73.023438 120.171875 -76.984375 C 115.546875 -80.953125 109.175781 -82.9375 101.0625 -82.9375 L 65.953125 -82.9375 L 65.953125 -39.0625 Z M 101.625 -39.0625 "/></g></g></g><g fill="#020617" fill-opacity="1"><g transform="translate(7.156709, 283.046088)"><g><path d="M 89.453125 1.984375 C 74.921875 1.984375 61.898438 -0.375 50.390625 -5.09375 C 38.878906 -9.8125 29.675781 -16.789062 22.78125 -26.03125 C 15.894531 -35.28125 12.265625 -46.421875 11.890625 -59.453125 L 63.40625 -59.453125 C 64.164062 -52.085938 66.710938 -46.46875 71.046875 -42.59375 C 75.390625 -38.726562 81.050781 -36.796875 88.03125 -36.796875 C 95.207031 -36.796875 100.867188 -38.445312 105.015625 -41.75 C 109.171875 -45.050781 111.25 -49.628906 111.25 -55.484375 C 111.25 -60.390625 109.597656 -64.445312 106.296875 -67.65625 C 102.992188 -70.863281 98.9375 -73.503906 94.125 -75.578125 C 89.3125 -77.660156 82.46875 -80.019531 73.59375 -82.65625 C 60.757812 -86.625 50.285156 -90.585938 42.171875 -94.546875 C 34.054688 -98.515625 27.070312 -104.363281 21.21875 -112.09375 C 15.375 -119.832031 12.453125 -129.929688 12.453125 -142.390625 C 12.453125 -160.878906 19.148438 -175.359375 32.546875 -185.828125 C 45.953125 -196.304688 63.410156 -201.546875 84.921875 -201.546875 C 106.816406 -201.546875 124.460938 -196.304688 137.859375 -185.828125 C 151.253906 -175.359375 158.425781 -160.785156 159.375 -142.109375 L 107 -142.109375 C 106.625 -148.523438 104.265625 -153.570312 99.921875 -157.25 C 95.585938 -160.925781 90.019531 -162.765625 83.21875 -162.765625 C 77.375 -162.765625 72.65625 -161.207031 69.0625 -158.09375 C 65.476562 -154.976562 63.6875 -150.5 63.6875 -144.65625 C 63.6875 -138.238281 66.707031 -133.234375 72.75 -129.640625 C 78.789062 -126.054688 88.226562 -122.191406 101.0625 -118.046875 C 113.894531 -113.703125 124.320312 -109.546875 132.34375 -105.578125 C 140.363281 -101.617188 147.296875 -95.863281 153.140625 -88.3125 C 158.992188 -80.769531 161.921875 -71.050781 161.921875 -59.15625 C 161.921875 -47.832031 159.039062 -37.546875 153.28125 -28.296875 C 147.53125 -19.054688 139.179688 -11.695312 128.234375 -6.21875 C 117.285156 -0.75 104.359375 1.984375 89.453125 1.984375 Z M 89.453125 1.984375 "/></g></g></g><g fill="#020617" fill-opacity="1"><g transform="translate(181.245627, 283.046088)"><g><path d="M 137.859375 -101.90625 C 149.367188 -99.457031 158.613281 -93.75 165.59375 -84.78125 C 172.582031 -75.8125 176.078125 -65.570312 176.078125 -54.0625 C 176.078125 -37.457031 170.269531 -24.296875 158.65625 -14.578125 C 147.050781 -4.859375 130.875 0 110.125 0 L 17.546875 0 L 17.546875 -198.71875 L 107 -198.71875 C 127.195312 -198.71875 143.003906 -194.09375 154.421875 -184.84375 C 165.835938 -175.601562 171.546875 -163.054688 171.546875 -147.203125 C 171.546875 -135.503906 168.476562 -125.785156 162.34375 -118.046875 C 156.207031 -110.304688 148.046875 -104.925781 137.859375 -101.90625 Z M 65.953125 -118.328125 L 97.65625 -118.328125 C 105.582031 -118.328125 111.671875 -120.070312 115.921875 -123.5625 C 120.171875 -127.050781 122.296875 -132.191406 122.296875 -138.984375 C 122.296875 -145.785156 120.171875 -150.976562 115.921875 -154.5625 C 111.671875 -158.144531 105.582031 -159.9375 97.65625 -159.9375 L 65.953125 -159.9375 Z M 101.625 -39.0625 C 109.738281 -39.0625 116.015625 -40.898438 120.453125 -44.578125 C 124.890625 -48.265625 127.109375 -53.597656 127.109375 -60.578125 C 127.109375 -67.554688 124.796875 -73.023438 120.171875 -76.984375 C 115.546875 -80.953125 109.175781 -82.9375 101.0625 -82.9375 L 65.953125 -82.9375 L 65.953125 -39.0625 Z M 101.625 -39.0625 "/></g></g></g></svg>